<svg width="20" height="20" viewBox="0 0 20 20" fill="none" xmlns="http://www.w3.org/2000/svg">
<g clip-path="url(#clip0_203_3989)">
<path fill-rule="evenodd" clip-rule="evenodd" d="M0.741468 8.61465C0.506398 8.84967 0.319926 9.12869 0.192704 9.43579C0.0654811 9.74289 0 10.072 0 10.4044C0 10.7369 0.0654811 11.066 0.192704 11.3731C0.319926 11.6802 0.506398 11.9592 0.741468 12.1942L3.60523 15.0571C3.98085 15.4324 4.46498 15.68 4.9891 15.765C5.51323 15.8499 6.05079 15.7678 6.52569 15.5304C7.00059 15.2929 7.38878 14.9121 7.63531 14.4418C7.88184 13.9715 7.97422 13.4356 7.89937 12.9099L8.88432 11.925L15.037 19.0254C15.2914 19.3186 15.6034 19.5563 15.9536 19.7237C16.3038 19.891 16.6847 19.9845 17.0726 19.9982C17.4605 20.012 17.8471 19.9457 18.2082 19.8035C18.5694 19.6613 18.8974 19.4463 19.1719 19.1719C19.4464 18.8974 19.6614 18.5694 19.8035 18.2082C19.9457 17.847 20.012 17.4604 19.9982 17.0725C19.9845 16.6846 19.891 16.3037 19.7237 15.9534C19.5563 15.6032 19.3186 15.2912 19.0254 15.0368L11.9263 8.88292L12.9102 7.89894C13.4361 7.97407 13.9722 7.88183 14.4428 7.63527C14.9133 7.3887 15.2943 7.00033 15.5318 6.52517C15.7693 6.05001 15.8513 5.51215 15.7661 4.9878C15.681 4.46345 15.433 3.9792 15.0573 3.60364L12.1945 0.7418C11.8189 0.365969 11.3346 0.11789 10.8101 0.0327238C10.2857 -0.0524425 9.7477 0.0296251 9.27249 0.267294C8.79728 0.504964 8.40893 0.886177 8.16247 1.3569C7.91602 1.82763 7.82397 2.36399 7.89937 2.88995L2.88853 7.89995C2.49982 7.84459 2.10356 7.88043 1.73109 8.00465C1.35862 8.12887 1.02016 8.33806 0.74248 8.61567M11.1215 6.82587L6.82735 11.1202L4.67927 8.97302L8.97442 4.67772L11.1215 6.82587ZM2.17284 10.7628C2.12579 10.7158 2.08844 10.66 2.06295 10.5986C2.03746 10.5372 2.02431 10.4713 2.02426 10.4048C2.02422 10.3383 2.03727 10.2724 2.06268 10.211C2.08808 10.1495 2.12535 10.0936 2.17234 10.0466C2.21933 9.99953 2.27513 9.96218 2.33656 9.93669C2.39798 9.91119 2.46383 9.89805 2.53033 9.898C2.59684 9.89795 2.6627 9.91101 2.72416 9.93641C2.78562 9.96182 2.84147 9.99909 2.88853 10.0461L5.7523 12.9099C5.80064 12.9566 5.8392 13.0125 5.86573 13.0742C5.89225 13.136 5.90622 13.2024 5.9068 13.2696C5.90739 13.3368 5.89458 13.4035 5.86913 13.4657C5.84368 13.5279 5.8061 13.5844 5.75857 13.6319C5.71105 13.6795 5.65454 13.717 5.59233 13.7425C5.53013 13.7679 5.46348 13.7808 5.39628 13.7802C5.32907 13.7796 5.26266 13.7656 5.2009 13.7391C5.13915 13.7126 5.0833 13.674 5.03661 13.6257L2.17284 10.7628ZM10.0464 2.88793C9.99809 2.84124 9.95953 2.78539 9.933 2.72363C9.90648 2.66188 9.89252 2.59546 9.89193 2.52825C9.89135 2.46104 9.90415 2.39439 9.9296 2.33219C9.95505 2.26998 9.99263 2.21347 10.0402 2.16594C10.0877 2.11842 10.1442 2.08083 10.2064 2.05538C10.2686 2.02993 10.3352 2.01713 10.4025 2.01771C10.4697 2.01829 10.5361 2.03226 10.5978 2.05878C10.6596 2.08531 10.7154 2.12387 10.7621 2.17222L13.6259 5.03608C13.6742 5.08278 13.7128 5.13863 13.7393 5.20038C13.7658 5.26214 13.7798 5.32855 13.7804 5.39576C13.781 5.46297 13.7682 5.52962 13.7427 5.59183C13.7173 5.65403 13.6797 5.71055 13.6322 5.75807C13.5846 5.8056 13.5281 5.84318 13.4659 5.86863C13.4037 5.89408 13.3371 5.90689 13.2699 5.9063C13.2027 5.90572 13.1362 5.89176 13.0745 5.86523C13.0127 5.8387 12.9569 5.80014 12.9102 5.7518L10.0464 2.88793ZM16.5676 17.6993L10.4858 10.6818L10.6821 10.4844L17.7004 16.5665C17.7812 16.6394 17.8463 16.728 17.8918 16.827C17.9373 16.9259 17.9622 17.033 17.965 17.1419C17.9678 17.2507 17.9484 17.359 17.9081 17.4601C17.8677 17.5612 17.8072 17.6531 17.7302 17.7301C17.6532 17.8071 17.5613 17.8676 17.4602 17.908C17.3591 17.9484 17.2508 17.9677 17.142 17.9649C17.0331 17.9622 16.926 17.9373 16.8271 17.8918C16.7282 17.8463 16.6395 17.7811 16.5666 17.7003" fill="white"/>
</g>
<defs>
<clipPath id="clip0_203_3989">
<rect width="20" height="20" fill="white"/>
</clipPath>
</defs>
</svg>
