<svg width="21" height="20" viewBox="0 0 21 20" fill="none" xmlns="http://www.w3.org/2000/svg">
<path d="M17.0266 2C17.8235 2 18.5878 2.31657 19.1513 2.88006C19.7148 3.44355 20.0313 4.2078 20.0313 5.0047V15.0204C20.0313 15.8173 19.7148 16.5815 19.1513 17.145C18.5878 17.7085 17.8235 18.0251 17.0266 18.0251H3.0047C2.2078 18.0251 1.44355 17.7085 0.880056 17.145C0.316566 16.5815 0 15.8173 0 15.0204V5.0047C0 4.2078 0.316566 3.44355 0.880056 2.88006C1.44355 2.31657 2.2078 2 3.0047 2H17.0266ZM18.0282 8.0094H2.00313V15.0204C2.00317 15.2657 2.09323 15.5025 2.25624 15.6858C2.41926 15.8691 2.64388 15.9862 2.88752 16.0149L3.0047 16.0219H17.0266C17.272 16.0219 17.5087 15.9318 17.692 15.7688C17.8754 15.6058 17.9925 15.3812 18.0212 15.1376L18.0282 15.0204V8.0094ZM15.0235 11.0141C15.2788 11.0144 15.5243 11.1121 15.7099 11.2874C15.8956 11.4626 16.0073 11.7021 16.0222 11.957C16.0372 12.2118 15.9543 12.4627 15.7904 12.6585C15.6266 12.8543 15.3942 12.9801 15.1407 13.0102L15.0235 13.0172H12.0188C11.7635 13.017 11.518 12.9192 11.3324 12.744C11.1467 12.5687 11.035 12.3292 11.0201 12.0744C11.0051 11.8195 11.088 11.5686 11.2519 11.3728C11.4157 11.1771 11.6481 11.0513 11.9016 11.0211L12.0188 11.0141H15.0235ZM17.0266 4.00313H3.0047C2.73907 4.00313 2.48432 4.10866 2.29649 4.29649C2.10866 4.48432 2.00313 4.73907 2.00313 5.0047V6.00627H18.0282V5.0047C18.0282 4.73907 17.9227 4.48432 17.7349 4.29649C17.547 4.10866 17.2923 4.00313 17.0266 4.00313Z" fill="white"/>
</svg>
