<svg width="20" height="20" viewBox="0 0 20 20" fill="none" xmlns="http://www.w3.org/2000/svg">
<path d="M18 16.381V17.2857H2V16.381L3.77778 14.5714V9.14286C3.77778 6.3381 5.58222 3.8681 8.22222 3.0719V2.80952C8.22222 2.32961 8.40952 1.86935 8.74292 1.53C9.07632 1.19065 9.5285 1 10 1C10.4715 1 10.9237 1.19065 11.2571 1.53C11.5905 1.86935 11.7778 2.32961 11.7778 2.80952V3.0719C14.4178 3.8681 16.2222 6.3381 16.2222 9.14286V14.5714L18 16.381ZM11.7778 18.1905C11.7778 18.6704 11.5905 19.1307 11.2571 19.47C10.9237 19.8094 10.4715 20 10 20C9.5285 20 9.07632 19.8094 8.74292 19.47C8.40952 19.1307 8.22222 18.6704 8.22222 18.1905" fill="white"/>
</svg>
