<svg width="20" height="20" viewBox="0 0 20 20" fill="none" xmlns="http://www.w3.org/2000/svg">
<path fill-rule="evenodd" clip-rule="evenodd" d="M8.8 1.40533C9.14619 1.14223 9.56726 1 10 1C10.4327 1 10.8538 1.14223 11.2 1.40533L18.2 6.72533C18.4484 6.91411 18.65 7.1589 18.7889 7.44031C18.9277 7.72173 19 8.03204 19 8.34667V17.9733C19 18.5108 18.7893 19.0263 18.4142 19.4064C18.0391 19.7865 17.5304 20 17 20H12.1C11.8083 20 11.5285 19.8826 11.3222 19.6735C11.1159 19.4645 11 19.181 11 18.8853V12.9067C11 12.6379 10.8946 12.3802 10.7071 12.1901C10.5196 12.0001 10.2652 11.8933 10 11.8933C9.73478 11.8933 9.48043 12.0001 9.29289 12.1901C9.10536 12.3802 9 12.6379 9 12.9067V18.8853C9 19.0317 8.97155 19.1767 8.91627 19.3119C8.86099 19.4471 8.77996 19.57 8.67782 19.6735C8.57567 19.777 8.45441 19.8591 8.32095 19.9152C8.18749 19.9712 8.04445 20 7.9 20H3C2.46957 20 1.96086 19.7865 1.58579 19.4064C1.21071 19.0263 1 18.5108 1 17.9733V8.34667C1 8.03204 1.07229 7.72173 1.21115 7.44031C1.35 7.1589 1.55161 6.91411 1.8 6.72533L8.8 1.40533ZM10 3.02667L3 8.34667V17.9733H7V12.9067C7 12.1004 7.31607 11.3272 7.87868 10.7571C8.44129 10.187 9.20435 9.86667 10 9.86667C10.7956 9.86667 11.5587 10.187 12.1213 10.7571C12.6839 11.3272 13 12.1004 13 12.9067V17.9733H17V8.34667L10 3.02667Z" fill="white"/>
</svg>
