<svg width="20" height="20" viewBox="0 0 20 20" fill="none" xmlns="http://www.w3.org/2000/svg">
<path d="M14.3241 1C15.0594 0.999959 15.7669 1.28089 16.3018 1.78532C16.8368 2.28975 17.1588 2.97954 17.2019 3.71356L17.2068 3.88268V13.4916H17.9274C18.5491 13.4916 19.0613 13.9644 19.1228 14.5697L19.1285 14.6927V16.3743C19.1286 17.1096 18.8476 17.8171 18.3432 18.352C17.8388 18.887 17.149 19.209 16.415 19.2522L16.2459 19.257H6.63694C5.90165 19.257 5.19414 18.9761 4.65917 18.4716C4.1242 17.9672 3.8022 17.2774 3.75906 16.5434L3.75426 16.3743V6.76535H2.0727C1.77534 6.76549 1.48851 6.65532 1.26769 6.45616C1.04688 6.25701 0.907797 5.98303 0.877347 5.68723L0.871582 5.56424V3.88268C0.871541 3.14739 1.15248 2.43988 1.6569 1.90491C2.16133 1.36994 2.85112 1.04794 3.58514 1.0048L3.75426 1H14.3241ZM14.3241 2.92178H5.67604V16.3743C5.67604 16.6291 5.77728 16.8735 5.95748 17.0537C6.13768 17.2339 6.38209 17.3352 6.63694 17.3352C6.89178 17.3352 7.13619 17.2339 7.31639 17.0537C7.49659 16.8735 7.59783 16.6291 7.59783 16.3743V14.6927C7.59783 14.0297 8.13593 13.4916 8.79894 13.4916H15.285V3.88268C15.285 3.62783 15.1837 3.38343 15.0035 3.20322C14.8233 3.02302 14.5789 2.92178 14.3241 2.92178ZM17.2068 15.4134H9.51961V16.3743C9.51961 16.7106 9.46196 17.0344 9.35626 17.3352H16.2459C16.5007 17.3352 16.7451 17.2339 16.9253 17.0537C17.1055 16.8735 17.2068 16.6291 17.2068 16.3743V15.4134ZM10.4805 9.64803C10.7353 9.64803 10.9798 9.74927 11.16 9.92947C11.3402 10.1097 11.4414 10.3541 11.4414 10.6089C11.4414 10.8638 11.3402 11.1082 11.16 11.2884C10.9798 11.4686 10.7353 11.5698 10.4805 11.5698H8.55872C8.30388 11.5698 8.05947 11.4686 7.87927 11.2884C7.69907 11.1082 7.59783 10.8638 7.59783 10.6089C7.59783 10.3541 7.69907 10.1097 7.87927 9.92947C8.05947 9.74927 8.30388 9.64803 8.55872 9.64803H10.4805ZM12.4023 5.80446C12.6571 5.80446 12.9015 5.9057 13.0817 6.0859C13.2619 6.2661 13.3632 6.51051 13.3632 6.76535C13.3632 7.0202 13.2619 7.2646 13.0817 7.44481C12.9015 7.62501 12.6571 7.72625 12.4023 7.72625H8.55872C8.30388 7.72625 8.05947 7.62501 7.87927 7.44481C7.69907 7.2646 7.59783 7.0202 7.59783 6.76535C7.59783 6.51051 7.69907 6.2661 7.87927 6.0859C8.05947 5.9057 8.30388 5.80446 8.55872 5.80446H12.4023ZM3.75426 2.92178C3.5189 2.92182 3.29175 3.00822 3.11587 3.16462C2.93999 3.32101 2.82763 3.53651 2.80009 3.77025L2.79337 3.88268V4.84357H3.75426V2.92178Z" fill="white"/>
</svg>
