<svg width="20" height="20" viewBox="0 0 20 20" fill="none" xmlns="http://www.w3.org/2000/svg">
<path fill-rule="evenodd" clip-rule="evenodd" d="M13.9149 1.86383C14.4617 1.3211 15.1976 1.01156 15.9679 1.00032C16.7383 0.989073 17.4829 1.277 18.0453 1.80353C18.6077 2.33007 18.944 3.05418 18.9834 3.82357C19.0228 4.59296 18.7624 5.34767 18.2568 5.92896L18.1229 6.0718L17.4215 6.77313L18.1229 7.47545C18.4737 7.82647 18.6802 8.29624 18.7017 8.79206C18.7232 9.28788 18.5581 9.77374 18.2389 10.1538L18.1229 10.2808L13.9149 14.4897C13.7368 14.6695 13.4967 14.7745 13.2438 14.783C12.9908 14.7916 12.7442 14.7032 12.5543 14.5359C12.3644 14.3686 12.2457 14.135 12.2224 13.883C12.1991 13.631 12.273 13.3796 12.4289 13.1803L12.5112 13.0861L16.7202 8.87811L16.0189 8.17678L6.22012 17.9756C6.09857 18.0971 5.95004 18.1882 5.78662 18.2414L5.66262 18.2741L2.19962 18.9665C2.04747 18.9972 1.89029 18.992 1.74047 18.9515C1.59064 18.911 1.45227 18.8363 1.33627 18.7332C1.22027 18.6301 1.12982 18.5014 1.07203 18.3574C1.01425 18.2133 0.990717 18.0578 1.0033 17.9031L1.02016 17.7871L1.71256 14.3251C1.74621 14.1563 1.81929 13.9979 1.92584 13.8628L2.01115 13.7666L13.9149 1.86383ZM4.0943 14.4897L3.60526 14.9788L3.2541 16.7316L5.00792 16.3814L5.49696 15.8924L4.0943 14.4897ZM13.2136 5.37047L5.49696 13.0861L6.90061 14.4897L14.6162 6.77313L13.2136 5.37047ZM16.7192 3.26748C16.5484 3.09668 16.3211 2.99408 16.0801 2.97892C15.839 2.96376 15.6007 3.03709 15.4098 3.18514L15.3166 3.26748L14.6152 3.96881L16.0179 5.37147L16.7192 4.67014L16.8016 4.57689C16.9496 4.38603 17.0229 4.14771 17.0078 3.90663C16.9926 3.66555 16.89 3.43829 16.7192 3.26748Z" fill="white"/>
</svg>
