<svg width="20" height="20" viewBox="0 0 20 20" fill="none" xmlns="http://www.w3.org/2000/svg">
<path d="M9.18348 19.9956C8.57969 19.9011 7.98449 19.7758 7.41723 19.5406C7.09922 19.4087 6.7855 19.2659 6.49328 19.0812C6.32997 18.9779 6.16237 18.9405 5.96899 18.9471C4.5057 18.9933 3.30027 18.0196 3.05746 16.5447C2.86623 15.3753 3.27878 14.4258 4.21563 13.7268C4.38752 13.5971 4.49066 13.4696 4.49926 13.2388C4.5186 12.63 4.55298 12.0189 4.59595 11.4123C4.64107 10.7704 4.8538 10.1836 5.19759 9.64725C5.43395 9.28018 5.42966 9.21863 5.14817 8.88453C4.39397 7.98993 3.79018 7.00521 3.40985 5.88421C2.81895 4.14776 2.87697 2.4223 3.51944 0.718823C3.81167 -0.0592818 4.77 -0.246115 5.33726 0.358345C6.00122 1.06391 6.44386 1.90796 6.77476 2.81795C7.21095 4.02027 7.43227 5.26876 7.51822 6.54582C7.54186 6.88212 7.55905 7.21842 7.58698 7.55692C7.60417 7.79211 7.76317 7.9152 7.99094 7.87783C8.79456 7.74155 9.60463 7.67781 10.419 7.70858C10.939 7.72836 11.4547 7.7965 11.9725 7.86244C12.2948 7.90421 12.4066 7.79211 12.4238 7.45361C12.4882 6.04906 12.6408 4.6577 13.0619 3.31031C13.3735 2.31899 13.8054 1.39142 14.4629 0.584743C14.7336 0.255037 15.0323 -0.00872699 15.49 0.0154514C15.9455 0.0396298 16.2872 0.241849 16.4634 0.674862C16.7513 1.38703 16.9168 2.13436 16.9726 2.90367C17.1424 5.20941 16.2915 7.14149 14.8755 8.86475C14.8174 8.93508 14.7573 9.00103 14.7079 9.07796C14.6176 9.21423 14.6112 9.35931 14.7079 9.49558C15.2364 10.2385 15.447 11.0782 15.4513 11.986C15.4535 12.441 15.4986 12.8937 15.5179 13.3465C15.5244 13.5114 15.6168 13.6015 15.7371 13.6872C16.3774 14.129 16.7835 14.7335 16.9425 15.5094C17.2713 17.125 16.1518 18.7229 14.5467 18.923C14.4715 18.9318 14.3941 18.9603 14.3211 18.9493C13.9064 18.8878 13.5626 19.0504 13.2102 19.2505C12.4968 19.6527 11.7233 19.8769 10.9132 19.9758C10.8831 19.9802 10.853 19.9912 10.823 20H9.18348V19.9956Z" fill="white"/>
</svg>
